<?xml version="1.0" encoding="utf-8"?>
<!-- Generator: Adobe Illustrator 16.0.0, SVG Export Plug-In . SVG Version: 6.00 Build 0)  -->
<!DOCTYPE svg PUBLIC "-//W3C//DTD SVG 1.1//EN" "http://www.w3.org/Graphics/SVG/1.1/DTD/svg11.dtd">
<svg version="1.1" id="Layer_1" xmlns="http://www.w3.org/2000/svg" xmlns:xlink="http://www.w3.org/1999/xlink" x="0px" y="0px"
	 width="128px" height="128px" viewBox="0 0 128 128" enable-background="new 0 0 128 128" xml:space="preserve">
<g id="Background">
	<rect fill-opacity="0" width="128" height="128"/>
</g>
<g id="Background_1_">
	<path fill="#737370" d="M18.092,6h91.811C116.552,6,122,11.441,122,18.096v91.806c0,6.656-5.448,12.098-12.098,12.098H18.092
		C11.436,122,6,116.559,6,109.902V18.096C6,11.441,11.436,6,18.092,6"/>
	<g>
		<path fill="#ECECEC" d="M73.813,91.156v14.713L99.34,84.431l-25.526-22.99v12.785c-29.889,0-35.76,33.181-35.76,33.181
			C46.533,92.57,57.565,91.156,73.813,91.156z"/>
	</g>
	<g>
		<g>
			<path fill="#ECECEC" d="M23.69,84.17c0.076-0.43,7.925-42.353,45.464-43.443v-18.14l36.271,32.645L69.154,85.693V65.249
				c-19.022,0.078-32.376,1.854-42.685,19.925l-4.286,7.514L23.69,84.17z"/>
			<path fill="#737370" d="M70.654,25.956l32.484,29.238L70.654,82.475V63.746c-20.642,0-34.717,1.805-45.487,20.685
				c0,0,7.466-42.225,45.487-42.225V25.956 M67.654,19.219v6.736v13.336c-15.278,0.886-27.868,8.597-36.543,22.433
				c-6.851,10.926-8.818,21.729-8.898,22.184l-3.012,17.036l8.572-15.027c9.639-16.897,22.182-18.985,39.881-19.158v15.716v6.438
				l4.93-4.141l32.484-27.281l2.642-2.219l-2.564-2.309L72.661,23.726L67.654,19.219L67.654,19.219z"/>
		</g>
	</g>
</g>
</svg>
