<?xml version="1.0" encoding="utf-8"?>
<!-- Generator: Adobe Illustrator 16.0.0, SVG Export Plug-In . SVG Version: 6.00 Build 0)  -->
<!DOCTYPE svg PUBLIC "-//W3C//DTD SVG 1.1//EN" "http://www.w3.org/Graphics/SVG/1.1/DTD/svg11.dtd">
<svg version="1.1" id="Layer_1" xmlns="http://www.w3.org/2000/svg" xmlns:xlink="http://www.w3.org/1999/xlink" x="0px" y="0px"
	 width="128px" height="128px" viewBox="0 0 128 128" enable-background="new 0 0 128 128" xml:space="preserve">
<g id="Background">
	<rect fill-opacity="0" width="128" height="128"/>
</g>
<g id="Background_1_">
	<path fill="#737370" d="M18.092,6h91.811C116.552,6,122,11.441,122,18.096v91.806c0,6.656-5.448,12.098-12.098,12.098H18.092
		C11.436,122,6,116.559,6,109.902V18.096C6,11.441,11.436,6,18.092,6"/>
	<g>
		<path fill="#82D1F5" d="M72.06,88.214v14.242l24.71-20.753L72.06,59.45v12.375c-28.933,0-34.617,32.119-34.617,32.119
			C45.652,89.575,56.33,88.214,72.06,88.214z"/>
	</g>
	<g>
		<g>
			<path fill="#82D1F5" d="M23.492,81.442c0.073-0.416,7.672-41.001,44.009-42.091v-17.62l35.231,31.708L67.501,83.028V63.184
				c-18.37,0.079-31.271,1.81-41.229,19.263l-4.285,7.512L23.492,81.442z"/>
			<path fill="#737370" d="M69.001,25.1l31.445,28.301L69.001,79.81V61.681c-19.981,0-33.605,1.747-44.032,20.022
				c0,0,7.226-40.874,44.032-40.874V25.1 M66.001,18.364V25.1v12.818c-14.781,0.885-26.961,8.36-35.36,21.754
				c-6.642,10.592-8.549,21.068-8.626,21.508l-3.011,17.031l8.571-15.022c9.29-16.282,21.376-18.321,38.426-18.495V79.81v6.438
				l4.93-4.141l31.445-26.408l2.642-2.219l-2.564-2.308L71.008,22.87L66.001,18.364L66.001,18.364z"/>
		</g>
	</g>
</g>
</svg>
